<?xml version="1.0" standalone="no"?>
<!DOCTYPE svg PUBLIC "-//W3C//DTD SVG 1.1//EN" "http://www.w3.org/Graphics/SVG/1.1/DTD/svg11.dtd" >
<svg xmlns="http://www.w3.org/2000/svg">
<metadata></metadata>
<defs>
<font id="socialcoregular" horiz-adv-x="1228" >
<font-face units-per-em="2048" ascent="1638" descent="-410" />
<missing-glyph horiz-adv-x="500" />
<glyph horiz-adv-x="2048" />
<glyph horiz-adv-x="2048" />
<glyph unicode="&#xd;" horiz-adv-x="2048" />
<glyph unicode=" " />
<glyph unicode="a" />
<glyph unicode="b" />
<glyph unicode="c" />
<glyph unicode="d" />
<glyph unicode="e" />
<glyph unicode="f" horiz-adv-x="1024" d="M512 0q-212 0 -362 150t-150 362t150 362t362 150t362 -150t150 -362t-150 -362t-362 -150zM49 512q0 -125 62 -231t168.5 -168t232.5 -62t232.5 62t168.5 168t62 231q0 192 -135.5 327.5t-327.5 135.5t-327.5 -135.5t-135.5 -327.5zM459 496h-72v90h72v45q0 48 31 82.5 t75 34.5h72v-89h-72q-6 0 -11 -8t-5 -20v-45h88v-90h-88v-220h-90v220z" />
<glyph unicode="g" />
<glyph unicode="h" />
<glyph unicode="i" />
<glyph unicode="j" />
<glyph unicode="k" />
<glyph unicode="l" />
<glyph unicode="m" />
<glyph unicode="n" />
<glyph unicode="o" />
<glyph unicode="p" />
<glyph unicode="q" />
<glyph unicode="r" />
<glyph unicode="s" horiz-adv-x="1024" d="M0 512q0 -212 150 -362t362 -150t362 150t150 362t-150 362t-362 150t-362 -150t-150 -362zM512 49q-192 0 -327.5 135.5t-135.5 327.5t135.5 327.5t327.5 135.5t327.5 -135.5t135.5 -327.5t-135.5 -327.5t-327.5 -135.5zM430 461l148 -88q-5 -20 -5 -25q0 -34 23 -57 t55 -23q34 0 57 23t23 57q0 32 -23 55t-57 23q-33 0 -57 -27l-148 86q5 20 5 27t-5 27l148 86q24 -27 57 -27q34 0 57 23t23 55q0 34 -23 57t-57 23q-32 0 -55 -23t-23 -57q0 -5 5 -25l-148 -88q-24 27 -57 27q-34 0 -57 -23t-23 -55t23 -55t57 -23q33 0 57 27z" />
<glyph unicode="t" horiz-adv-x="1024" d="M512 0q-212 0 -362 150t-150 362t150 362t362 150t362 -150t150 -362t-150 -362t-362 -150zM49 512q0 -192 135.5 -327.5t327.5 -135.5q125 0 231 62t168 168.5t62 232.5t-62 232.5t-168 168.5t-231 62q-192 0 -327.5 -135.5t-135.5 -327.5zM428 555h-63v66q37 12 53 26 q20 17 31 41q13 23 16 57h65v-106h109v-84h-109v-121q0 -38 5 -51q9 -13 18 -18q11 -9 35 -9q34 0 69 21v-74q-2 -1 -53 -20q-32 -4 -53 -4q-17 0 -49 8q-15 3 -43 22q-20 17 -23 33q-8 13 -8 49v164z" />
<glyph unicode="u" />
<glyph unicode="v" horiz-adv-x="1024" d="M512 0q-212 0 -362 150t-150 362t150 362t362 150t362 -150t150 -362t-150 -362t-362 -150zM49 512q0 -192 135.5 -327.5t327.5 -135.5t327.5 135.5t135.5 327.5t-135.5 327.5t-327.5 135.5t-327.5 -135.5t-135.5 -327.5zM281 586l-21 26q10 12 26 29.5t56.5 49.5 t69.5 38q20 4 34 -5t22 -31.5t12 -42t8.5 -51t7.5 -44.5q16 -56 24.5 -78t18.5 -22q22 0 69 90q23 42 4 68.5t-61 0.5q10 68 72 102q57 31 102 10q51 -24 37 -99q-12 -73 -63 -148t-95 -115.5t-76 -60.5q-23 -17 -44.5 -11t-36.5 21t-23 33q-8 17 -44 132t-44 124 q-8 7 -20.5 3t-23.5 -11z" />
<glyph unicode="w" />
<glyph unicode="x" />
<glyph unicode="y" />
<glyph unicode="z" />
<glyph unicode="&#xa0;" />
<glyph unicode="&#x2000;" horiz-adv-x="682" />
<glyph unicode="&#x2001;" horiz-adv-x="1365" />
<glyph unicode="&#x2002;" horiz-adv-x="682" />
<glyph unicode="&#x2003;" horiz-adv-x="1365" />
<glyph unicode="&#x2004;" horiz-adv-x="455" />
<glyph unicode="&#x2005;" horiz-adv-x="341" />
<glyph unicode="&#x2006;" horiz-adv-x="227" />
<glyph unicode="&#x2007;" horiz-adv-x="227" />
<glyph unicode="&#x2008;" horiz-adv-x="170" />
<glyph unicode="&#x2009;" horiz-adv-x="273" />
<glyph unicode="&#x200a;" horiz-adv-x="75" />
<glyph unicode="&#x202f;" horiz-adv-x="273" />
<glyph unicode="&#x205f;" horiz-adv-x="341" />
<glyph unicode="&#x25fc;" horiz-adv-x="1024" d="M0 0z" />
</font>
</defs>
</svg>
